# xmcd CD database file generated by OrangeCD 5.2
#
# Track frame offsets:
#	150
#	11245
#	25770
#	46720
#	60255
#	76620
#	99282
#	109440
#	118590
#	126960
#	135312
#	145775
#	158692
#	171345
#	183620
#	196830
#	210797
#	223927
#	233740
#	247065
#	259177
#	271932
#	281192
#
# Disc length: 3907 seconds
#
# Revision: 2
# Processed by: cddbd v1.5.1PL0 Copyright (c) Steve Scherf et al.
# Submitted via: OrangeCD 5.2
#
DISCID=400f4117
DTITLE=The Buckaroos - Dynamite Rock'n Roll - 1984-1994
DYEAR=1994
DGENRE=Blues
TTITLE0=Lights out
TTITLE1=Her mind is gone
TTITLE2=T-bone shuffle
TTITLE3=Breakin up the house
TTITLE4=Some people can't dance
TTITLE5=You can have her
TTITLE6=Snake eyes (buckaroo twist)
TTITLE7=Little pig
TTITLE8=Let's never mention old times again
TTITLE9=Patty baby
TTITLE10=Let's say goodnight
TTITLE11=Bloodshot eyes
TTITLE12=Try rock and roll
TTITLE13=Little lovin' Marie
TTITLE14=Ma petite cherie
TTITLE15=To smile and say I love you
TTITLE16=Give a lonely heart a home
TTITLE17=Put me down
TTITLE18=I ain't got time for you
TTITLE19=It ain't rock and roll
TTITLE20=Strictly Orders
TTITLE21=You got to rock
TTITLE22=Dance Franny dance
EXTD=
EXTT0=
EXTT1=
EXTT2=
EXTT3=
EXTT4=
EXTT5=
EXTT6=
EXTT7=
EXTT8=
EXTT9=
EXTT10=
EXTT11=
EXTT12=
EXTT13=
EXTT14=
EXTT15=
EXTT16=
EXTT17=
EXTT18=
EXTT19=
EXTT20=
EXTT21=
EXTT22=
PLAYORDER=
